<mxfile host="app.diagrams.net" modified="2023-10-06T08:08:41.074Z" agent="Mozilla/5.0 (Windows NT 10.0; Win64; x64) AppleWebKit/537.36 (KHTML, like Gecko) Chrome/117.0.0.0 Safari/537.36" etag="GxFDOL2RxpB4QrXdzLRj" version="22.0.3" type="device">
  <diagram id="R2lEEEUBdFMjLlhIrx00" name="Page-1">
    <mxGraphModel dx="1900" dy="542" grid="1" gridSize="10" guides="1" tooltips="1" connect="1" arrows="1" fold="1" page="1" pageScale="1" pageWidth="850" pageHeight="1100" math="0" shadow="0" extFonts="Permanent Marker^https://fonts.googleapis.com/css?family=Permanent+Marker">
      <root>
        <mxCell id="0" />
        <mxCell id="1" parent="0" />
        <mxCell id="G_SUPdP_elpwGoyHrzBG-1" value="User" style="swimlane;fontStyle=0;childLayout=stackLayout;horizontal=1;startSize=26;fillColor=none;horizontalStack=0;resizeParent=1;resizeParentMax=0;resizeLast=0;collapsible=1;marginBottom=0;html=1;" vertex="1" parent="1">
          <mxGeometry y="15" width="140" height="130" as="geometry" />
        </mxCell>
        <mxCell id="G_SUPdP_elpwGoyHrzBG-2" value="id" style="text;strokeColor=none;fillColor=none;align=left;verticalAlign=top;spacingLeft=4;spacingRight=4;overflow=hidden;rotatable=0;points=[[0,0.5],[1,0.5]];portConstraint=eastwest;whiteSpace=wrap;html=1;" vertex="1" parent="G_SUPdP_elpwGoyHrzBG-1">
          <mxGeometry y="26" width="140" height="26" as="geometry" />
        </mxCell>
        <mxCell id="G_SUPdP_elpwGoyHrzBG-3" value="name" style="text;strokeColor=none;fillColor=none;align=left;verticalAlign=top;spacingLeft=4;spacingRight=4;overflow=hidden;rotatable=0;points=[[0,0.5],[1,0.5]];portConstraint=eastwest;whiteSpace=wrap;html=1;" vertex="1" parent="G_SUPdP_elpwGoyHrzBG-1">
          <mxGeometry y="52" width="140" height="26" as="geometry" />
        </mxCell>
        <mxCell id="G_SUPdP_elpwGoyHrzBG-4" value="second_name&lt;br&gt;&lt;br&gt;date" style="text;strokeColor=none;fillColor=none;align=left;verticalAlign=top;spacingLeft=4;spacingRight=4;overflow=hidden;rotatable=0;points=[[0,0.5],[1,0.5]];portConstraint=eastwest;whiteSpace=wrap;html=1;" vertex="1" parent="G_SUPdP_elpwGoyHrzBG-1">
          <mxGeometry y="78" width="140" height="52" as="geometry" />
        </mxCell>
        <mxCell id="G_SUPdP_elpwGoyHrzBG-5" value="Account" style="swimlane;fontStyle=0;childLayout=stackLayout;horizontal=1;startSize=26;fillColor=none;horizontalStack=0;resizeParent=1;resizeParentMax=0;resizeLast=0;collapsible=1;marginBottom=0;html=1;" vertex="1" parent="1">
          <mxGeometry x="270" y="40" width="140" height="160" as="geometry" />
        </mxCell>
        <mxCell id="G_SUPdP_elpwGoyHrzBG-6" value="email&lt;br&gt;" style="text;strokeColor=none;fillColor=none;align=left;verticalAlign=top;spacingLeft=4;spacingRight=4;overflow=hidden;rotatable=0;points=[[0,0.5],[1,0.5]];portConstraint=eastwest;whiteSpace=wrap;html=1;" vertex="1" parent="G_SUPdP_elpwGoyHrzBG-5">
          <mxGeometry y="26" width="140" height="26" as="geometry" />
        </mxCell>
        <mxCell id="G_SUPdP_elpwGoyHrzBG-7" value="nickname" style="text;strokeColor=none;fillColor=none;align=left;verticalAlign=top;spacingLeft=4;spacingRight=4;overflow=hidden;rotatable=0;points=[[0,0.5],[1,0.5]];portConstraint=eastwest;whiteSpace=wrap;html=1;" vertex="1" parent="G_SUPdP_elpwGoyHrzBG-5">
          <mxGeometry y="52" width="140" height="26" as="geometry" />
        </mxCell>
        <mxCell id="G_SUPdP_elpwGoyHrzBG-8" value="password&lt;br&gt;&lt;br&gt;user id&lt;br&gt;&lt;br&gt;role_id" style="text;strokeColor=none;fillColor=none;align=left;verticalAlign=top;spacingLeft=4;spacingRight=4;overflow=hidden;rotatable=0;points=[[0,0.5],[1,0.5]];portConstraint=eastwest;whiteSpace=wrap;html=1;" vertex="1" parent="G_SUPdP_elpwGoyHrzBG-5">
          <mxGeometry y="78" width="140" height="82" as="geometry" />
        </mxCell>
        <mxCell id="G_SUPdP_elpwGoyHrzBG-9" value="" style="edgeStyle=entityRelationEdgeStyle;fontSize=12;html=1;endArrow=ERoneToMany;startArrow=ERoneToMany;rounded=0;entryX=0;entryY=0.5;entryDx=0;entryDy=0;exitX=1;exitY=0.5;exitDx=0;exitDy=0;" edge="1" parent="1" source="G_SUPdP_elpwGoyHrzBG-2" target="G_SUPdP_elpwGoyHrzBG-8">
          <mxGeometry width="100" height="100" relative="1" as="geometry">
            <mxPoint x="170" y="160" as="sourcePoint" />
            <mxPoint x="270" y="60" as="targetPoint" />
          </mxGeometry>
        </mxCell>
        <mxCell id="G_SUPdP_elpwGoyHrzBG-10" value="Role" style="swimlane;fontStyle=0;childLayout=stackLayout;horizontal=1;startSize=26;fillColor=none;horizontalStack=0;resizeParent=1;resizeParentMax=0;resizeLast=0;collapsible=1;marginBottom=0;html=1;" vertex="1" parent="1">
          <mxGeometry x="-10" y="170" width="140" height="78" as="geometry" />
        </mxCell>
        <mxCell id="G_SUPdP_elpwGoyHrzBG-11" value="id" style="text;strokeColor=none;fillColor=none;align=left;verticalAlign=top;spacingLeft=4;spacingRight=4;overflow=hidden;rotatable=0;points=[[0,0.5],[1,0.5]];portConstraint=eastwest;whiteSpace=wrap;html=1;" vertex="1" parent="G_SUPdP_elpwGoyHrzBG-10">
          <mxGeometry y="26" width="140" height="26" as="geometry" />
        </mxCell>
        <mxCell id="G_SUPdP_elpwGoyHrzBG-12" value="title" style="text;strokeColor=none;fillColor=none;align=left;verticalAlign=top;spacingLeft=4;spacingRight=4;overflow=hidden;rotatable=0;points=[[0,0.5],[1,0.5]];portConstraint=eastwest;whiteSpace=wrap;html=1;" vertex="1" parent="G_SUPdP_elpwGoyHrzBG-10">
          <mxGeometry y="52" width="140" height="26" as="geometry" />
        </mxCell>
        <mxCell id="G_SUPdP_elpwGoyHrzBG-14" value="" style="edgeStyle=entityRelationEdgeStyle;fontSize=12;html=1;endArrow=ERoneToMany;rounded=0;entryX=-0.011;entryY=0.831;entryDx=0;entryDy=0;entryPerimeter=0;exitX=1;exitY=0.5;exitDx=0;exitDy=0;" edge="1" parent="1" source="G_SUPdP_elpwGoyHrzBG-11" target="G_SUPdP_elpwGoyHrzBG-8">
          <mxGeometry width="100" height="100" relative="1" as="geometry">
            <mxPoint x="170" y="290" as="sourcePoint" />
            <mxPoint x="270" y="190" as="targetPoint" />
            <Array as="points">
              <mxPoint x="150" y="310" />
              <mxPoint x="200" y="270" />
            </Array>
          </mxGeometry>
        </mxCell>
        <mxCell id="G_SUPdP_elpwGoyHrzBG-16" value="Artist" style="swimlane;fontStyle=0;childLayout=stackLayout;horizontal=1;startSize=26;horizontalStack=0;resizeParent=1;resizeParentMax=0;resizeLast=0;collapsible=1;marginBottom=0;align=center;fontSize=14;" vertex="1" parent="1">
          <mxGeometry x="510" y="15" width="160" height="180" as="geometry" />
        </mxCell>
        <mxCell id="G_SUPdP_elpwGoyHrzBG-17" value="id" style="text;strokeColor=none;fillColor=none;spacingLeft=4;spacingRight=4;overflow=hidden;rotatable=0;points=[[0,0.5],[1,0.5]];portConstraint=eastwest;fontSize=12;whiteSpace=wrap;html=1;" vertex="1" parent="G_SUPdP_elpwGoyHrzBG-16">
          <mxGeometry y="26" width="160" height="30" as="geometry" />
        </mxCell>
        <mxCell id="G_SUPdP_elpwGoyHrzBG-18" value="name" style="text;strokeColor=none;fillColor=none;spacingLeft=4;spacingRight=4;overflow=hidden;rotatable=0;points=[[0,0.5],[1,0.5]];portConstraint=eastwest;fontSize=12;whiteSpace=wrap;html=1;" vertex="1" parent="G_SUPdP_elpwGoyHrzBG-16">
          <mxGeometry y="56" width="160" height="30" as="geometry" />
        </mxCell>
        <mxCell id="G_SUPdP_elpwGoyHrzBG-19" value="date&lt;br&gt;&lt;br&gt;second name&lt;br&gt;&lt;br&gt;account_id" style="text;strokeColor=none;fillColor=none;spacingLeft=4;spacingRight=4;overflow=hidden;rotatable=0;points=[[0,0.5],[1,0.5]];portConstraint=eastwest;fontSize=12;whiteSpace=wrap;html=1;" vertex="1" parent="G_SUPdP_elpwGoyHrzBG-16">
          <mxGeometry y="86" width="160" height="94" as="geometry" />
        </mxCell>
        <mxCell id="G_SUPdP_elpwGoyHrzBG-20" value="" style="edgeStyle=entityRelationEdgeStyle;fontSize=12;html=1;endArrow=ERoneToMany;startArrow=ERoneToMany;rounded=0;entryX=-0.02;entryY=0.777;entryDx=0;entryDy=0;entryPerimeter=0;" edge="1" parent="1" target="G_SUPdP_elpwGoyHrzBG-19">
          <mxGeometry width="100" height="100" relative="1" as="geometry">
            <mxPoint x="410" y="155" as="sourcePoint" />
            <mxPoint x="510" y="55" as="targetPoint" />
          </mxGeometry>
        </mxCell>
        <mxCell id="G_SUPdP_elpwGoyHrzBG-21" value="Group" style="swimlane;fontStyle=0;childLayout=stackLayout;horizontal=1;startSize=26;horizontalStack=0;resizeParent=1;resizeParentMax=0;resizeLast=0;collapsible=1;marginBottom=0;align=center;fontSize=14;" vertex="1" parent="1">
          <mxGeometry x="510" y="230" width="160" height="230" as="geometry" />
        </mxCell>
        <mxCell id="G_SUPdP_elpwGoyHrzBG-22" value="id&lt;br&gt;" style="text;strokeColor=none;fillColor=none;spacingLeft=4;spacingRight=4;overflow=hidden;rotatable=0;points=[[0,0.5],[1,0.5]];portConstraint=eastwest;fontSize=12;whiteSpace=wrap;html=1;" vertex="1" parent="G_SUPdP_elpwGoyHrzBG-21">
          <mxGeometry y="26" width="160" height="30" as="geometry" />
        </mxCell>
        <mxCell id="G_SUPdP_elpwGoyHrzBG-23" value="name&lt;br&gt;" style="text;strokeColor=none;fillColor=none;spacingLeft=4;spacingRight=4;overflow=hidden;rotatable=0;points=[[0,0.5],[1,0.5]];portConstraint=eastwest;fontSize=12;whiteSpace=wrap;html=1;" vertex="1" parent="G_SUPdP_elpwGoyHrzBG-21">
          <mxGeometry y="56" width="160" height="30" as="geometry" />
        </mxCell>
        <mxCell id="G_SUPdP_elpwGoyHrzBG-24" value="second name&lt;br&gt;&lt;br&gt;date&lt;br&gt;&lt;br&gt;number_of_artists&lt;br&gt;&lt;br&gt;title&lt;br&gt;&lt;br&gt;account_id" style="text;strokeColor=none;fillColor=none;spacingLeft=4;spacingRight=4;overflow=hidden;rotatable=0;points=[[0,0.5],[1,0.5]];portConstraint=eastwest;fontSize=12;whiteSpace=wrap;html=1;" vertex="1" parent="G_SUPdP_elpwGoyHrzBG-21">
          <mxGeometry y="86" width="160" height="144" as="geometry" />
        </mxCell>
        <mxCell id="G_SUPdP_elpwGoyHrzBG-25" value="" style="edgeStyle=entityRelationEdgeStyle;fontSize=12;html=1;endArrow=ERmany;startArrow=ERmany;rounded=0;exitX=1.017;exitY=0.723;exitDx=0;exitDy=0;exitPerimeter=0;" edge="1" parent="1">
          <mxGeometry width="100" height="100" relative="1" as="geometry">
            <mxPoint x="410.0000000000001" y="155.596" as="sourcePoint" />
            <mxPoint x="510" y="450" as="targetPoint" />
          </mxGeometry>
        </mxCell>
        <mxCell id="G_SUPdP_elpwGoyHrzBG-27" value="song" style="swimlane;fontStyle=0;childLayout=stackLayout;horizontal=1;startSize=26;horizontalStack=0;resizeParent=1;resizeParentMax=0;resizeLast=0;collapsible=1;marginBottom=0;align=center;fontSize=14;" vertex="1" parent="1">
          <mxGeometry x="760" y="110" width="160" height="190" as="geometry" />
        </mxCell>
        <mxCell id="G_SUPdP_elpwGoyHrzBG-28" value="id" style="text;strokeColor=none;fillColor=none;spacingLeft=4;spacingRight=4;overflow=hidden;rotatable=0;points=[[0,0.5],[1,0.5]];portConstraint=eastwest;fontSize=12;whiteSpace=wrap;html=1;" vertex="1" parent="G_SUPdP_elpwGoyHrzBG-27">
          <mxGeometry y="26" width="160" height="30" as="geometry" />
        </mxCell>
        <mxCell id="G_SUPdP_elpwGoyHrzBG-29" value="title" style="text;strokeColor=none;fillColor=none;spacingLeft=4;spacingRight=4;overflow=hidden;rotatable=0;points=[[0,0.5],[1,0.5]];portConstraint=eastwest;fontSize=12;whiteSpace=wrap;html=1;" vertex="1" parent="G_SUPdP_elpwGoyHrzBG-27">
          <mxGeometry y="56" width="160" height="30" as="geometry" />
        </mxCell>
        <mxCell id="G_SUPdP_elpwGoyHrzBG-30" value="date_of&lt;br&gt;&lt;br&gt;artist_id&lt;br&gt;&lt;br&gt;group_id&lt;br&gt;genre_id" style="text;strokeColor=none;fillColor=none;spacingLeft=4;spacingRight=4;overflow=hidden;rotatable=0;points=[[0,0.5],[1,0.5]];portConstraint=eastwest;fontSize=12;whiteSpace=wrap;html=1;" vertex="1" parent="G_SUPdP_elpwGoyHrzBG-27">
          <mxGeometry y="86" width="160" height="104" as="geometry" />
        </mxCell>
        <mxCell id="G_SUPdP_elpwGoyHrzBG-31" value="" style="edgeStyle=entityRelationEdgeStyle;fontSize=12;html=1;endArrow=ERmany;startArrow=ERmany;rounded=0;entryX=0;entryY=0.5;entryDx=0;entryDy=0;" edge="1" parent="1" target="G_SUPdP_elpwGoyHrzBG-30">
          <mxGeometry width="100" height="100" relative="1" as="geometry">
            <mxPoint x="670" y="70" as="sourcePoint" />
            <mxPoint x="770" y="-30" as="targetPoint" />
            <Array as="points">
              <mxPoint x="960" y="-160" />
              <mxPoint x="960" y="-140" />
              <mxPoint x="720" y="20" />
            </Array>
          </mxGeometry>
        </mxCell>
        <mxCell id="G_SUPdP_elpwGoyHrzBG-33" value="" style="edgeStyle=entityRelationEdgeStyle;fontSize=12;html=1;endArrow=ERmany;startArrow=ERmany;rounded=0;exitX=1;exitY=0.5;exitDx=0;exitDy=0;" edge="1" parent="1" source="G_SUPdP_elpwGoyHrzBG-22">
          <mxGeometry width="100" height="100" relative="1" as="geometry">
            <mxPoint x="660" y="370" as="sourcePoint" />
            <mxPoint x="760" y="270" as="targetPoint" />
            <Array as="points">
              <mxPoint x="1070" y="360" />
            </Array>
          </mxGeometry>
        </mxCell>
        <mxCell id="G_SUPdP_elpwGoyHrzBG-48" value="Albom" style="swimlane;fontStyle=0;childLayout=stackLayout;horizontal=1;startSize=26;horizontalStack=0;resizeParent=1;resizeParentMax=0;resizeLast=0;collapsible=1;marginBottom=0;align=center;fontSize=14;" vertex="1" parent="1">
          <mxGeometry x="250" y="270" width="160" height="190" as="geometry" />
        </mxCell>
        <mxCell id="G_SUPdP_elpwGoyHrzBG-49" value="id" style="text;strokeColor=none;fillColor=none;spacingLeft=4;spacingRight=4;overflow=hidden;rotatable=0;points=[[0,0.5],[1,0.5]];portConstraint=eastwest;fontSize=12;whiteSpace=wrap;html=1;" vertex="1" parent="G_SUPdP_elpwGoyHrzBG-48">
          <mxGeometry y="26" width="160" height="30" as="geometry" />
        </mxCell>
        <mxCell id="G_SUPdP_elpwGoyHrzBG-50" value="title" style="text;strokeColor=none;fillColor=none;spacingLeft=4;spacingRight=4;overflow=hidden;rotatable=0;points=[[0,0.5],[1,0.5]];portConstraint=eastwest;fontSize=12;whiteSpace=wrap;html=1;" vertex="1" parent="G_SUPdP_elpwGoyHrzBG-48">
          <mxGeometry y="56" width="160" height="30" as="geometry" />
        </mxCell>
        <mxCell id="G_SUPdP_elpwGoyHrzBG-51" value="date_of&lt;br&gt;&lt;br&gt;artist_id&lt;br&gt;&lt;br&gt;group_id&lt;br&gt;genre_id" style="text;strokeColor=none;fillColor=none;spacingLeft=4;spacingRight=4;overflow=hidden;rotatable=0;points=[[0,0.5],[1,0.5]];portConstraint=eastwest;fontSize=12;whiteSpace=wrap;html=1;" vertex="1" parent="G_SUPdP_elpwGoyHrzBG-48">
          <mxGeometry y="86" width="160" height="104" as="geometry" />
        </mxCell>
        <mxCell id="G_SUPdP_elpwGoyHrzBG-53" value="" style="edgeStyle=entityRelationEdgeStyle;fontSize=12;html=1;endArrow=ERmany;startArrow=ERmany;rounded=0;exitX=1.013;exitY=0.412;exitDx=0;exitDy=0;exitPerimeter=0;" edge="1" parent="1" source="G_SUPdP_elpwGoyHrzBG-51">
          <mxGeometry width="100" height="100" relative="1" as="geometry">
            <mxPoint x="410" y="310" as="sourcePoint" />
            <mxPoint x="510" y="55" as="targetPoint" />
            <Array as="points">
              <mxPoint x="420" y="340" />
              <mxPoint x="410" y="200" />
              <mxPoint x="390" y="95" />
              <mxPoint x="440" y="115" />
              <mxPoint x="420" y="115" />
              <mxPoint x="360" y="105" />
              <mxPoint x="400" y="115" />
              <mxPoint x="430" y="95" />
            </Array>
          </mxGeometry>
        </mxCell>
        <mxCell id="G_SUPdP_elpwGoyHrzBG-58" value="" style="edgeStyle=entityRelationEdgeStyle;fontSize=12;html=1;endArrow=ERmany;startArrow=ERmany;rounded=0;exitX=1.003;exitY=0.742;exitDx=0;exitDy=0;exitPerimeter=0;" edge="1" parent="1" source="G_SUPdP_elpwGoyHrzBG-51">
          <mxGeometry width="100" height="100" relative="1" as="geometry">
            <mxPoint x="410" y="370" as="sourcePoint" />
            <mxPoint x="510" y="270" as="targetPoint" />
            <Array as="points">
              <mxPoint x="420" y="380" />
              <mxPoint x="470" y="430" />
            </Array>
          </mxGeometry>
        </mxCell>
        <mxCell id="G_SUPdP_elpwGoyHrzBG-59" value="Admin" style="swimlane;fontStyle=0;childLayout=stackLayout;horizontal=1;startSize=20;horizontalStack=0;resizeParent=1;resizeParentMax=0;resizeLast=0;collapsible=1;marginBottom=0;align=center;fontSize=14;" vertex="1" parent="1">
          <mxGeometry y="330" width="160" height="220" as="geometry" />
        </mxCell>
        <mxCell id="G_SUPdP_elpwGoyHrzBG-60" value="id" style="text;strokeColor=none;fillColor=none;spacingLeft=4;spacingRight=4;overflow=hidden;rotatable=0;points=[[0,0.5],[1,0.5]];portConstraint=eastwest;fontSize=12;whiteSpace=wrap;html=1;" vertex="1" parent="G_SUPdP_elpwGoyHrzBG-59">
          <mxGeometry y="20" width="160" height="30" as="geometry" />
        </mxCell>
        <mxCell id="G_SUPdP_elpwGoyHrzBG-61" value="name" style="text;strokeColor=none;fillColor=none;spacingLeft=4;spacingRight=4;overflow=hidden;rotatable=0;points=[[0,0.5],[1,0.5]];portConstraint=eastwest;fontSize=12;whiteSpace=wrap;html=1;" vertex="1" parent="G_SUPdP_elpwGoyHrzBG-59">
          <mxGeometry y="50" width="160" height="30" as="geometry" />
        </mxCell>
        <mxCell id="G_SUPdP_elpwGoyHrzBG-62" value="date&lt;br&gt;&lt;br&gt;second name&lt;br&gt;&lt;br&gt;account_id&lt;br&gt;&lt;br&gt;log_id" style="text;strokeColor=none;fillColor=none;spacingLeft=4;spacingRight=4;overflow=hidden;rotatable=0;points=[[0,0.5],[1,0.5]];portConstraint=eastwest;fontSize=12;whiteSpace=wrap;html=1;" vertex="1" parent="G_SUPdP_elpwGoyHrzBG-59">
          <mxGeometry y="80" width="160" height="140" as="geometry" />
        </mxCell>
        <mxCell id="G_SUPdP_elpwGoyHrzBG-63" value="" style="edgeStyle=entityRelationEdgeStyle;fontSize=12;html=1;endArrow=ERmany;startArrow=ERmany;rounded=0;" edge="1" parent="1">
          <mxGeometry width="100" height="100" relative="1" as="geometry">
            <mxPoint x="150" y="348" as="sourcePoint" />
            <mxPoint x="260" y="160" as="targetPoint" />
            <Array as="points">
              <mxPoint x="200" y="290" />
            </Array>
          </mxGeometry>
        </mxCell>
        <mxCell id="G_SUPdP_elpwGoyHrzBG-64" value="genre" style="swimlane;fontStyle=0;childLayout=stackLayout;horizontal=1;startSize=20;horizontalStack=0;resizeParent=1;resizeParentMax=0;resizeLast=0;collapsible=1;marginBottom=0;align=center;fontSize=14;" vertex="1" parent="1">
          <mxGeometry x="1050" y="110" width="160" height="80" as="geometry" />
        </mxCell>
        <mxCell id="G_SUPdP_elpwGoyHrzBG-65" value="id" style="text;strokeColor=none;fillColor=none;spacingLeft=4;spacingRight=4;overflow=hidden;rotatable=0;points=[[0,0.5],[1,0.5]];portConstraint=eastwest;fontSize=12;whiteSpace=wrap;html=1;" vertex="1" parent="G_SUPdP_elpwGoyHrzBG-64">
          <mxGeometry y="20" width="160" height="30" as="geometry" />
        </mxCell>
        <mxCell id="G_SUPdP_elpwGoyHrzBG-66" value="title" style="text;strokeColor=none;fillColor=none;spacingLeft=4;spacingRight=4;overflow=hidden;rotatable=0;points=[[0,0.5],[1,0.5]];portConstraint=eastwest;fontSize=12;whiteSpace=wrap;html=1;" vertex="1" parent="G_SUPdP_elpwGoyHrzBG-64">
          <mxGeometry y="50" width="160" height="30" as="geometry" />
        </mxCell>
        <mxCell id="G_SUPdP_elpwGoyHrzBG-68" value="" style="edgeStyle=entityRelationEdgeStyle;fontSize=12;html=1;endArrow=ERmany;startArrow=ERmany;rounded=0;exitX=1.02;exitY=0.796;exitDx=0;exitDy=0;exitPerimeter=0;" edge="1" parent="1" source="G_SUPdP_elpwGoyHrzBG-30">
          <mxGeometry width="100" height="100" relative="1" as="geometry">
            <mxPoint x="950" y="245" as="sourcePoint" />
            <mxPoint x="1050" y="145" as="targetPoint" />
            <Array as="points">
              <mxPoint x="1010" y="185" />
            </Array>
          </mxGeometry>
        </mxCell>
        <mxCell id="G_SUPdP_elpwGoyHrzBG-70" value="" style="edgeStyle=entityRelationEdgeStyle;fontSize=12;html=1;endArrow=ERmany;startArrow=ERmany;rounded=0;exitX=1.003;exitY=0.919;exitDx=0;exitDy=0;exitPerimeter=0;" edge="1" parent="1" source="G_SUPdP_elpwGoyHrzBG-51">
          <mxGeometry width="100" height="100" relative="1" as="geometry">
            <mxPoint x="410" y="470" as="sourcePoint" />
            <mxPoint x="1050" y="148" as="targetPoint" />
          </mxGeometry>
        </mxCell>
        <mxCell id="G_SUPdP_elpwGoyHrzBG-71" value="log" style="swimlane;fontStyle=0;childLayout=stackLayout;horizontal=1;startSize=26;horizontalStack=0;resizeParent=1;resizeParentMax=0;resizeLast=0;collapsible=1;marginBottom=0;align=center;fontSize=14;" vertex="1" parent="1">
          <mxGeometry x="220" y="520" width="160" height="116" as="geometry" />
        </mxCell>
        <mxCell id="G_SUPdP_elpwGoyHrzBG-72" value="id" style="text;strokeColor=none;fillColor=none;spacingLeft=4;spacingRight=4;overflow=hidden;rotatable=0;points=[[0,0.5],[1,0.5]];portConstraint=eastwest;fontSize=12;whiteSpace=wrap;html=1;" vertex="1" parent="G_SUPdP_elpwGoyHrzBG-71">
          <mxGeometry y="26" width="160" height="30" as="geometry" />
        </mxCell>
        <mxCell id="G_SUPdP_elpwGoyHrzBG-73" value="account_id" style="text;strokeColor=none;fillColor=none;spacingLeft=4;spacingRight=4;overflow=hidden;rotatable=0;points=[[0,0.5],[1,0.5]];portConstraint=eastwest;fontSize=12;whiteSpace=wrap;html=1;" vertex="1" parent="G_SUPdP_elpwGoyHrzBG-71">
          <mxGeometry y="56" width="160" height="30" as="geometry" />
        </mxCell>
        <mxCell id="G_SUPdP_elpwGoyHrzBG-74" value="type" style="text;strokeColor=none;fillColor=none;spacingLeft=4;spacingRight=4;overflow=hidden;rotatable=0;points=[[0,0.5],[1,0.5]];portConstraint=eastwest;fontSize=12;whiteSpace=wrap;html=1;" vertex="1" parent="G_SUPdP_elpwGoyHrzBG-71">
          <mxGeometry y="86" width="160" height="30" as="geometry" />
        </mxCell>
        <mxCell id="G_SUPdP_elpwGoyHrzBG-76" value="" style="edgeStyle=entityRelationEdgeStyle;fontSize=12;html=1;endArrow=ERmany;startArrow=ERmany;rounded=0;" edge="1" parent="1">
          <mxGeometry width="100" height="100" relative="1" as="geometry">
            <mxPoint x="210" y="590" as="sourcePoint" />
            <mxPoint x="260" y="150" as="targetPoint" />
            <Array as="points">
              <mxPoint x="250" y="220" />
            </Array>
          </mxGeometry>
        </mxCell>
      </root>
    </mxGraphModel>
  </diagram>
</mxfile>
